# xmcd
#
# Track frame offsets:
#	150
#	14861
#	30501
#	50718
#	63908
#	81037
#	97198
#	116087
#	130922
#	146529
#	162149
#	176270
#
# Disc length: 2560 seconds
#
# Revision: 1
# Processed by: cddbd v1.5.1PL0 Copyright (c) Steve Scherf et al.
# Submitted via: dBpowerAMP V4.0
#
DISCID=a209fe0c
DTITLE=Steve Forde and the Flange - Livin' Right
DYEAR=2002
DGENRE=Country
TTITLE0=Roughstock Riders
TTITLE1=Chasin' the Sun
TTITLE2=Give it all
TTITLE3=Livin' Right
TTITLE4=First Thing on my Mind
TTITLE5=In the Stars
TTITLE6=What I'm Talkin' About
TTITLE7=Rodeo Freak
TTITLE8=One Day at a Time
TTITLE9=Modern day Outlaw
TTITLE10=Something I'm in Love With
TTITLE11=She Shines
EXTD=
EXTT0=
EXTT1=
EXTT2=
EXTT3=
EXTT4=
EXTT5=
EXTT6=
EXTT7=
EXTT8=
EXTT9=
EXTT10=
EXTT11=
PLAYORDER=
